<?xml version="1.0" encoding="UTF-8" standalone="no"?>
<svg
   xmlns:dc="http://purl.org/dc/elements/1.1/"
   xmlns:cc="http://creativecommons.org/ns#"
   xmlns:rdf="http://www.w3.org/1999/02/22-rdf-syntax-ns#"
   xmlns:svg="http://www.w3.org/2000/svg"
   xmlns="http://www.w3.org/2000/svg"
   xmlns:sodipodi="http://sodipodi.sourceforge.net/DTD/sodipodi-0.dtd"
   xmlns:inkscape="http://www.inkscape.org/namespaces/inkscape"
   id="Layer_1"
   data-name="Layer 1"
   viewBox="0 0 72 72"
   version="1.1"
   sodipodi:docname="facebook__team-member__black.svg"
   inkscape:version="0.92.3 (d244b95, 2018-08-02)">
  <metadata
     id="metadata3761">
    <rdf:RDF>
      <cc:Work
         rdf:about="">
        <dc:format>image/svg+xml</dc:format>
        <dc:type
           rdf:resource="http://purl.org/dc/dcmitype/StillImage" />
        <dc:title>flogo-HexRBG-Wht-72</dc:title>
      </cc:Work>
    </rdf:RDF>
  </metadata>
  <sodipodi:namedview
     pagecolor="#ffffff"
     bordercolor="#666666"
     borderopacity="1"
     objecttolerance="10"
     gridtolerance="10"
     guidetolerance="10"
     inkscape:pageopacity="0"
     inkscape:pageshadow="2"
     inkscape:window-width="1301"
     inkscape:window-height="744"
     id="namedview3759"
     showgrid="false"
     inkscape:pagecheckerboard="true"
     inkscape:zoom="5.4542593"
     inkscape:cx="26.978376"
     inkscape:cy="23.287633"
     inkscape:window-x="65"
     inkscape:window-y="24"
     inkscape:window-maximized="1"
     inkscape:current-layer="Layer_1" />
  <defs
     id="defs3752" />
  <title
     id="title3754">flogo-HexRBG-Wht-72</title>
  <path
     class="cls-1"
     d="M 68,0 H 4 A 4,4 0 0 0 0,4 v 64 a 4,4 0 0 0 4,4 H 38.46 V 44.16 h -9.35 v -10.9 h 9.35 v -8 c 0,-9.3 5.68,-14.36 14,-14.36 a 77.46,77.46 0 0 1 8.38,0.43 V 21 h -5.76 c -4.5,0 -5.37,2.14 -5.37,5.29 v 6.94 H 60.5 l -1.4,10.9 H 49.71 V 72 H 68 a 4,4 0 0 0 4,-4 V 4 A 4,4 0 0 0 68,0 Z"
     id="path3756"
     style="fill:#010000;fill-opacity:1"
     inkscape:connector-curvature="0" />
</svg>
