<?xml version="1.0" encoding="UTF-8" standalone="no"?>
<svg
   xmlns:dc="http://purl.org/dc/elements/1.1/"
   xmlns:cc="http://creativecommons.org/ns#"
   xmlns:rdf="http://www.w3.org/1999/02/22-rdf-syntax-ns#"
   xmlns:svg="http://www.w3.org/2000/svg"
   xmlns="http://www.w3.org/2000/svg"
   xmlns:sodipodi="http://sodipodi.sourceforge.net/DTD/sodipodi-0.dtd"
   xmlns:inkscape="http://www.inkscape.org/namespaces/inkscape"
   aria-hidden="true"
   focusable="false"
   data-prefix="fab"
   data-icon="telegram"
   class="svg-inline--fa fa-telegram fa-w-16"
   role="img"
   viewBox="0 0 496 512"
   version="1.1"
   id="svg4"
   sodipodi:docname="irc.svg"
   inkscape:version="0.92.4 5da689c313, 2019-01-14">
  <metadata
     id="metadata10">
    <rdf:RDF>
      <cc:Work
         rdf:about="">
        <dc:format>image/svg+xml</dc:format>
        <dc:type
           rdf:resource="http://purl.org/dc/dcmitype/StillImage" />
        <dc:title />
      </cc:Work>
    </rdf:RDF>
  </metadata>
  <defs
     id="defs8" />
  <sodipodi:namedview
     pagecolor="#8fffff"
     bordercolor="#666666"
     borderopacity="1"
     objecttolerance="10"
     gridtolerance="10"
     guidetolerance="10"
     inkscape:pageopacity="0"
     inkscape:pageshadow="2"
     inkscape:window-width="1366"
     inkscape:window-height="724"
     id="namedview6"
     showgrid="false"
     inkscape:zoom="0.65186406"
     inkscape:cx="-400.19631"
     inkscape:cy="172.72755"
     inkscape:window-x="0"
     inkscape:window-y="0"
     inkscape:window-maximized="1"
     inkscape:current-layer="svg4" />
  <path
     d="M 248,8 C 111,8 0,119 0,256 0,393 111,504 248,504 385,504 496,393 496,256 496,119 385,8 248,8 Z"
     id="path2"
     style="fill:#ffffff"
     inkscape:connector-curvature="0"
     sodipodi:nodetypes="sssss" />
  <path
     id="path3711"
     d="m 253.12026,178.3946 c -69.74012,0 -126.26217,36.17806 -126.26217,80.82744 0,19.27423 10.55473,36.91636 28.11306,50.78915 -6.16514,19.58511 -26.7814,37.03295 -27.02799,37.22725 -1.08507,0.89377 -1.381,2.21498 -0.73982,3.38077 0.64118,1.16577 2.02216,1.86524 3.60044,1.86524 32.69994,0 57.21255,-12.35727 69.34555,-19.97371 16.12803,4.77971 34.0316,7.53872 52.97093,7.53872 69.74011,0 126.26217,-36.17804 126.26217,-80.82742 0,-44.64938 -56.52206,-80.82744 -126.26217,-80.82744 z"
     inkscape:connector-curvature="0"
     style="fill:#6d4477;fill-opacity:1;stroke-width:0.43778849" />
  <path
     style="fill:#6d4477;fill-opacity:1;stroke:#6d4477;stroke-opacity:1"
     id="path4527"
     ry="23.010933"
     rx="16.107653"
     cy="255.81161"
     cx="194.05887" />
  <ellipse
     style="fill:#f9f9f9;fill-opacity:1;stroke:#000000;stroke-opacity:0"
     id="path4537"
     cx="195.67578"
     cy="257.85828"
     rx="19.175777"
     ry="17.641716" />
  <ellipse
     style="fill:#f9f9f9;fill-opacity:1;stroke:#000000;stroke-opacity:0"
     id="path4539"
     cx="-346.69806"
     cy="253.51053"
     rx="85.907478"
     ry="0.76703107" />
  <ellipse
     ry="17.641716"
     rx="19.175777"
     cy="257.85828"
     cx="255.67578"
     id="ellipse4559"
     style="fill:#f9f9f9;fill-opacity:1;stroke:#000000;stroke-opacity:0" />
  <ellipse
     style="fill:#f9f9f9;fill-opacity:1;stroke:#000000;stroke-opacity:0"
     id="ellipse4561"
     cx="315.67578"
     cy="257.85828"
     rx="19.175777"
     ry="17.641716" />
</svg>
