<?xml version="1.0" encoding="UTF-8" standalone="no"?>
<svg
   xmlns:dc="http://purl.org/dc/elements/1.1/"
   xmlns:cc="http://creativecommons.org/ns#"
   xmlns:rdf="http://www.w3.org/1999/02/22-rdf-syntax-ns#"
   xmlns:svg="http://www.w3.org/2000/svg"
   xmlns="http://www.w3.org/2000/svg"
   xmlns:xlink="http://www.w3.org/1999/xlink"
   xmlns:sodipodi="http://sodipodi.sourceforge.net/DTD/sodipodi-0.dtd"
   xmlns:inkscape="http://www.inkscape.org/namespaces/inkscape"
   width="2680"
   height="245"
   viewBox="0 0 2680 245"
   version="1.1"
   id="svg146"
   sodipodi:docname="background2.svg"
   inkscape:version="0.92.4 (f8dce91, 2019-08-02)">
  <metadata
     id="metadata150">
    <rdf:RDF>
      <cc:Work
         rdf:about="">
        <dc:format>image/svg+xml</dc:format>
        <dc:type
           rdf:resource="http://purl.org/dc/dcmitype/StillImage" />
        <dc:title />
      </cc:Work>
    </rdf:RDF>
  </metadata>
  <sodipodi:namedview
     pagecolor="#ffffff"
     bordercolor="#666666"
     borderopacity="1"
     objecttolerance="10"
     gridtolerance="10"
     guidetolerance="10"
     inkscape:pageopacity="0"
     inkscape:pageshadow="2"
     inkscape:window-width="1299"
     inkscape:window-height="713"
     id="namedview148"
     showgrid="false"
     inkscape:zoom="1.4142136"
     inkscape:cx="2326.8308"
     inkscape:cy="53.315041"
     inkscape:window-x="67"
     inkscape:window-y="27"
     inkscape:window-maximized="1"
     inkscape:current-layer="svg146" />
  <defs
     id="defs5">
    <path
       id="a"
       d="M 79.87,47.208 C 79.87,21.308 65.613,0.314 39.935,0.314 22.817,0.314 9.505,6.634 0,19.274 v 148.359 c 0,86.551 25.857,106.09 60.156,106.09 H 79.871 L 54.29,226.946 h 25.58 z"
       inkscape:connector-curvature="0" />
    <path
       id="c"
       d="M 79.87,47.208 C 79.87,21.308 59.055,0.314 33.377,0.314 H 0 v 167.319 c 0,86.551 25.857,106.09 60.156,106.09 H 79.871 L 54.29,226.946 h 25.58 z"
       inkscape:connector-curvature="0" />
    <path
       id="e"
       d="M 26.132,0 H 0 v 32.049 c 0,16.728 13.476,30.29 30.098,30.29 H 88.076 C 88.076,27.908 60.343,0 26.132,0"
       inkscape:connector-curvature="0" />
    <mask
       id="f"
       fill="#fff">
      <use
         xlink:href="#e"
         id="use91"
         x="0"
         y="0"
         width="100%"
         height="100%" />
    </mask>
  </defs>
  <path
     style="fill:#653f6f;fill-rule:nonzero"
     inkscape:connector-curvature="0"
     id="path7"
     d="M 1785.678,177.504 C 1362.258,231.08 894.366,255.063 382,249.448 V 276 H 2681 V 108 c -294.503,8.074 -592.944,31.242 -895.322,69.504 z" />
  <path
     style="fill:#8b7192;fill-rule:evenodd"
     inkscape:connector-curvature="0"
     id="path9"
     d="m 2226.094,67.77 -36.535,5.134 c -27.937,3.926 -53.779,-15.616 -57.719,-43.65 18.434,1.175 31.342,-1.133 38.725,-6.922 7.383,-5.79 14.214,-6.256 20.492,-1.4 l 35.037,46.837 z" />
  <path
     style="fill:#000000;fill-rule:evenodd"
     inkscape:connector-curvature="0"
     id="path11"
     d="m 2138.343,25.205 c 2.205,2.822 1.716,6.89 -1.097,9.087 -2.809,2.195 -6.876,1.687 -9.081,-1.135 -2.205,-2.822 -1.712,-6.89 1.096,-9.084 2.813,-2.198 6.877,-1.69 9.082,1.132" />
  <path
     style="fill:#000000;fill-rule:evenodd"
     d="m 2154.088,51.46 c 0.4,0.512 0.312,1.252 -0.2,1.652 -0.51,0.399 -1.25,0.306 -1.65,-0.207 a 1.176,1.176 0 0 1 0.198,-1.651 c 0.512,-0.4 1.25,-0.308 1.652,0.205 m -9.137,-6.821 c 0.401,0.513 0.312,1.253 -0.2,1.652 -0.51,0.4 -1.25,0.307 -1.65,-0.206 a 1.176,1.176 0 0 1 0.2,-1.652 c 0.51,-0.4 1.25,-0.307 1.65,0.206 m 9.383,-0.985 c 0.4,0.513 0.312,1.253 -0.2,1.652 -0.51,0.4 -1.25,0.307 -1.65,-0.206 a 1.176,1.176 0 0 1 0.199,-1.652 c 0.511,-0.4 1.25,-0.307 1.65,0.206"
     id="path13"
     inkscape:connector-curvature="0" />
  <path
     style="fill:#6d4477;fill-rule:nonzero"
     inkscape:connector-curvature="0"
     id="path102"
     d="M 2528,206 H 1088 v 227 h 1440 z" />
  <use
     xlink:href="#a"
     id="use20"
     style="fill:#8b7192;fill-rule:evenodd"
     x="0"
     y="0"
     width="100%"
     height="100%"
     transform="translate(2172.304,2.05)" />
  <path
     d="M 2172.3,311.996 V 109.334 c 15.655,14.645 23.483,31.718 23.483,51.218 l 6.683,156.983"
     mask="none"
     id="path22"
     inkscape:connector-curvature="0"
     style="fill:#e29fb0;fill-rule:evenodd" />
  <path
     d="m 2185.276,139.516 c 0,0.65 -0.525,1.179 -1.174,1.179 a 1.177,1.177 0 0 1 -1.174,-1.18 c 0,-0.65 0.526,-1.178 1.174,-1.178 0.649,0 1.174,0.527 1.174,1.179 m -2.348,34.189 c 0,0.651 -0.526,1.18 -1.174,1.18 a 1.177,1.177 0 0 1 -1.174,-1.18 c 0,-0.651 0.525,-1.179 1.174,-1.179 0.648,0 1.174,0.528 1.174,1.18 m 2.348,-12.969 c 0,0.65 -0.525,1.179 -1.174,1.179 a 1.177,1.177 0 0 1 -1.174,-1.18 c 0,-0.65 0.526,-1.178 1.174,-1.178 0.649,0 1.174,0.527 1.174,1.179 m 2.349,53.053 c 0,0.65 -0.526,1.178 -1.175,1.178 a 1.177,1.177 0 0 1 -1.174,-1.179 c 0,-0.65 0.526,-1.178 1.174,-1.178 0.65,0 1.175,0.527 1.175,1.178 m -7.045,-17.684 c 0,0.651 -0.526,1.18 -1.175,1.18 a 1.177,1.177 0 0 1 -1.174,-1.18 c 0,-0.651 0.526,-1.179 1.174,-1.179 0.65,0 1.175,0.528 1.175,1.18 m 7.045,-2.359 c 0,0.651 -0.526,1.18 -1.175,1.18 a 1.177,1.177 0 0 1 -1.174,-1.18 c 0,-0.651 0.526,-1.179 1.174,-1.179 0.65,0 1.175,0.528 1.175,1.18 m 0,37.725 c 0,0.652 -0.526,1.18 -1.175,1.18 a 1.177,1.177 0 0 1 -1.174,-1.18 c 0,-0.65 0.526,-1.178 1.174,-1.178 0.65,0 1.175,0.527 1.175,1.178"
     id="path26"
     inkscape:connector-curvature="0"
     style="fill:#1d1d1b;fill-rule:evenodd" />
  <path
     d="m 2144.247,28 h 14.963 m -36.477,0 h -16.12 m 17.83,5.128 -15.44,6.572 m 33.904,-6.572 15.44,6.572 z"
     id="path28"
     inkscape:connector-curvature="0"
     style="fill:none;fill-rule:evenodd;stroke:#000000;stroke-width:2" />
  <path
     d="M 2175.11,66 2164,67.465 c 1.62,0 1.301,2.094 3.415,3.225 2.114,1.132 4.763,3.362 4.763,5.633 l 10.217,0.977 z m 132.26,185.62 0.745,-77.246 c -31.052,0 -56.224,-24.195 -56.224,-55.374 L 2233,265.361 l 74.37,-13.74 z"
     id="path30"
     inkscape:connector-curvature="0"
     style="fill:#8b7192;fill-rule:evenodd" />
  <path
     d="m 2184,38.316 c 0,-3.488 2.816,-6.316 6.29,-6.316 3.474,0 6.289,2.828 6.289,6.316"
     id="path32"
     inkscape:connector-curvature="0"
     style="fill:#000000;fill-rule:evenodd;stroke:#000000;stroke-width:4.19999981" />
  <path
     d="m 2196.579,38 c 0,3.488 -2.816,6.316 -6.29,6.316 -3.474,0 -6.289,-2.828 -6.289,-6.316"
     id="path34"
     inkscape:connector-curvature="0"
     style="fill:#000000;fill-rule:evenodd;stroke:#000000;stroke-width:4.19999981" />
  <circle
     cx="2188"
     cy="39"
     r="2"
     id="circle36"
     style="fill:#ffffff;fill-rule:nonzero" />
  <path
     d="m 2380.736,419.915 v 5.65 -11.3 z"
     id="path38"
     inkscape:connector-curvature="0"
     style="fill:#6d367a;fill-rule:evenodd" />
  <path
     style="fill:none;fill-rule:evenodd;stroke:#000000;stroke-width:4"
     inkscape:connector-curvature="0"
     id="path42"
     d="m 2174,64.841 c 5.044,0 8.099,-3.586 8.099,-7.98" />
  <path
     style="fill:#e29fb0;fill-rule:evenodd"
     inkscape:connector-curvature="0"
     id="path44"
     d="m 1998.951,102.362 31.951,-18.446 c 24.433,-14.106 32.765,-45.415 18.61,-69.932 -13.803,12.274 -25.395,18.403 -34.778,18.387 -9.382,-0.017 -15.052,3.82 -17.01,11.513 z" />
  <use
     xlink:href="#c"
     id="use49"
     style="fill:#e29fb0;fill-rule:evenodd"
     x="0"
     y="0"
     width="100%"
     height="100%"
     transform="matrix(-1,0,0,1,2031.696,32.05)" />
  <path
     d="M 2031.692,341.996 V 139.334 c -15.655,14.645 -23.483,31.718 -23.483,51.218 v 151.444"
     mask="none"
     id="path51"
     inkscape:connector-curvature="0"
     style="fill:#fefefe;fill-rule:evenodd" />
  <path
     style="fill:#000000;fill-rule:evenodd"
     inkscape:connector-curvature="0"
     id="path55"
     d="m 2041.895,14.797 c 0,3.581 2.89,6.485 6.46,6.485 3.563,0 6.456,-2.904 6.456,-6.485 0,-3.582 -2.893,-6.483 -6.457,-6.483 -3.57,0 -6.46,2.901 -6.46,6.483 m 3.758,29.382 c 0,0.65 0.525,1.179 1.174,1.179 0.648,0 1.174,-0.528 1.174,-1.18 0,-0.65 -0.526,-1.178 -1.174,-1.178 -0.649,0 -1.174,0.528 -1.174,1.179 m -2,-10 c 0,0.65 0.525,1.179 1.174,1.179 0.648,0 1.174,-0.528 1.174,-1.18 0,-0.65 -0.526,-1.178 -1.174,-1.178 -0.649,0 -1.174,0.528 -1.174,1.179" />
  <path
     style="fill:#1d1d1b;fill-rule:evenodd"
     inkscape:connector-curvature="0"
     id="path57"
     d="m 2018.724,169.516 c 0,0.65 0.525,1.179 1.174,1.179 0.648,0 1.174,-0.528 1.174,-1.18 0,-0.65 -0.526,-1.178 -1.174,-1.178 -0.649,0 -1.174,0.527 -1.174,1.179 m 2.348,34.189 c 0,0.651 0.526,1.18 1.174,1.18 0.649,0 1.174,-0.529 1.174,-1.18 0,-0.651 -0.525,-1.179 -1.174,-1.179 -0.648,0 -1.174,0.528 -1.174,1.18 m -2.348,-12.969 c 0,0.65 0.525,1.179 1.174,1.179 0.648,0 1.174,-0.528 1.174,-1.18 0,-0.65 -0.526,-1.178 -1.174,-1.178 -0.649,0 -1.174,0.527 -1.174,1.179 m -2.349,53.053 c 0,0.65 0.526,1.178 1.175,1.178 0.648,0 1.174,-0.528 1.174,-1.179 0,-0.65 -0.526,-1.178 -1.174,-1.178 -0.65,0 -1.175,0.527 -1.175,1.178 m 7.045,-17.684 c 0,0.651 0.526,1.18 1.175,1.18 0.648,0 1.174,-0.529 1.174,-1.18 0,-0.651 -0.526,-1.179 -1.174,-1.179 -0.65,0 -1.175,0.528 -1.175,1.18 m -7.045,-2.359 c 0,0.651 0.526,1.18 1.175,1.18 0.648,0 1.174,-0.529 1.174,-1.18 0,-0.651 -0.526,-1.179 -1.174,-1.179 -0.65,0 -1.175,0.528 -1.175,1.18 m 0,37.725 c 0,0.652 0.526,1.18 1.175,1.18 0.648,0 1.174,-0.528 1.174,-1.18 0,-0.65 -0.526,-1.178 -1.174,-1.178 -0.65,0 -1.175,0.527 -1.175,1.178" />
  <path
     style="fill:#000000;fill-rule:evenodd"
     inkscape:connector-curvature="0"
     id="path63"
     d="m 2032.814,52.8 c 0,0.651 0.525,1.179 1.174,1.179 0.648,0 1.174,-0.528 1.174,-1.18 0,-0.65 -0.526,-1.178 -1.174,-1.178 -0.649,0 -1.174,0.528 -1.174,1.179 m 8.838,-2.621 c 0,0.65 0.525,1.179 1.174,1.179 0.648,0 1.174,-0.528 1.174,-1.18 0,-0.65 -0.526,-1.178 -1.174,-1.178 -0.649,0 -1.174,0.528 -1.174,1.179 m -7,-9 c 0,0.65 0.525,1.179 1.174,1.179 0.648,0 1.174,-0.528 1.174,-1.18 0,-0.65 -0.526,-1.178 -1.174,-1.178 -0.649,0 -1.174,0.528 -1.174,1.179" />
  <path
     style="fill:none;fill-rule:evenodd;stroke:#000000;stroke-width:2"
     inkscape:connector-curvature="0"
     id="path65"
     d="m 2035.162,12.716 h -18.787 m 44.339,0 h 20.241 m -21.737,5.894 19.389,8.253 m -42.843,-8.253 -19.389,8.253" />
  <path
     style="fill:#e29fb0;fill-rule:evenodd"
     inkscape:connector-curvature="0"
     id="path67"
     d="m 2027.92,70.484 14.287,2.668 c -2.082,0 -1.673,3.813 -4.391,5.873 -2.718,2.06 -6.125,6.122 -6.125,10.257 l -13.14,1.778 z m -131.29,232.136 -0.745,-77.246 c 31.052,0 56.224,-24.195 56.224,-55.374 l 18.891,146.361 -74.37,-13.74 z m -134.355,19.269 -0.24,-24.542 c 10.005,0 18.368,-8.143 18.368,-18.19 0,-6.696 1.945,9.023 5.834,47.159 z" />
  <path
     style="fill:none;fill-rule:evenodd;stroke:#000000;stroke-width:4.19999981"
     inkscape:connector-curvature="0"
     id="path69"
     d="m 2005.814,59.567 c -1.638,-3.08 -5.452,-4.254 -8.519,-2.623 -3.067,1.63 -4.225,5.45 -2.588,8.529" />
  <path
     style="fill:#e29fb0;fill-rule:evenodd"
     inkscape:connector-curvature="0"
     id="path71"
     d="M 1924.79,306.321 H 1780.356 V 259.163 H 1924.79 Z" />
  <path
     style="fill:#fefefe;fill-rule:evenodd"
     inkscape:connector-curvature="0"
     id="path73"
     d="m 1970.583,306.321 h -163.608 c 21.458,-15.719 48.106,-23.579 79.947,-23.579 h 83.66 v 23.58 z" />
  <path
     style="fill:#1d1d1b;fill-rule:evenodd"
     inkscape:connector-curvature="0"
     id="path75"
     d="m 1933.009,298.02 c 0,0.652 0.525,1.18 1.174,1.18 0.648,0 1.174,-0.528 1.174,-1.18 0,-0.65 -0.526,-1.178 -1.174,-1.178 -0.649,0 -1.174,0.528 -1.174,1.179 m -32.877,-7.074 c 0,0.651 0.526,1.18 1.175,1.18 0.648,0 1.173,-0.529 1.173,-1.18 0,-0.651 -0.525,-1.179 -1.173,-1.179 -0.65,0 -1.175,0.528 -1.175,1.18 m 23.484,-10e-4 c 0,0.651 0.525,1.18 1.174,1.18 0.648,0 1.174,-0.529 1.174,-1.18 0,-0.651 -0.526,-1.179 -1.174,-1.179 -0.649,0 -1.174,0.528 -1.174,1.18 m -35.226,10.61 c 0,0.65 0.526,1.179 1.175,1.179 0.648,0 1.174,-0.528 1.174,-1.18 0,-0.65 -0.526,-1.178 -1.174,-1.178 -0.65,0 -1.175,0.528 -1.175,1.179 m -23.483,-2.358 c 0,0.651 0.525,1.179 1.174,1.179 0.648,0 1.174,-0.528 1.174,-1.18 0,-0.65 -0.526,-1.178 -1.174,-1.178 -0.649,0 -1.174,0.528 -1.174,1.179 m 46.967,-1.18 c 0,0.652 0.525,1.18 1.174,1.18 0.648,0 1.174,-0.528 1.174,-1.18 0,-0.65 -0.526,-1.178 -1.174,-1.178 -0.649,0 -1.174,0.528 -1.174,1.179" />
  <path
     style="fill:#e29fb0;fill-rule:evenodd"
     inkscape:connector-curvature="0"
     id="path77"
     d="m 1756.56,297.457 h 24.97 v 30.555 c 0,15.949 -12.876,28.877 -28.76,28.877 h -55.399 c 0,-32.824 26.5,-59.432 59.19,-59.432" />
  <path
     style="fill:#e29fb0;fill-rule:evenodd"
     inkscape:connector-curvature="0"
     id="path79"
     d="m 1806.153,297.457 h -24.968 v 30.555 c 0,15.949 12.875,28.877 28.758,28.877 h 55.4 c 0,-32.824 -26.5,-59.432 -59.19,-59.432" />
  <path
     style="fill:none;fill-rule:nonzero;stroke:#000000;stroke-width:2"
     d="m 1846.799,355.684 c 0,-16.375 -11.844,-32.572 -19.3,-37.265 m -1.592,37.279 c 0,-16.374 -11.844,-32.571 -19.3,-37.265"
     id="path81"
     inkscape:connector-curvature="0" />
  <path
     style="fill:none;fill-rule:nonzero;stroke:#000000;stroke-width:2"
     d="m 1718.581,355.684 c 0,-16.375 11.844,-32.572 19.3,-37.265 m 1.592,37.279 c 0,-16.374 11.844,-32.571 19.3,-37.265"
     id="path85"
     inkscape:connector-curvature="0" />
  <path
     style="fill:#e29fb0;fill-rule:nonzero"
     inkscape:connector-curvature="0"
     id="path89"
     d="m 2009.292,240.91 h -40.622 v 64.908 h 40.623 z" />
  <use
     xlink:href="#e"
     id="use94"
     style="fill:#e29fb0;fill-rule:evenodd"
     x="0"
     y="0"
     width="100%"
     height="100%"
     transform="matrix(-1,0,0,1,2009.292,296.91)" />
  <path
     style="fill:none;fill-rule:nonzero;stroke:#000000;stroke-width:2"
     inkscape:connector-curvature="0"
     id="path96"
     d="m 1920.882,343.941 h 41.483 c 9.054,0 15.356,-2.495 15.356,-12.908 m -56.839,-5.919 h 41.483 c 9.054,0 15.356,-2.495 15.356,-12.907" />
  <path
     style="fill:#6d4477;fill-rule:nonzero;stroke-width:1.20358264"
     inkscape:connector-curvature="0"
     id="path102-3"
     d="M 2085.186,204.01973 H -0.81415091 v 227 H 2085.186 Z" />
  <path
     d="m 2337.246,136.54 -36.135,5.078 c -27.633,3.884 -54.314,-7.915 -58.389,-36.907 19.133,-1.878 32.905,-8.355 41.317,-19.429 8.412,-11.074 14.49,-10.193 18.231,2.642 z"
     id="path106"
     inkscape:connector-curvature="0"
     style="fill:#34163b;fill-rule:evenodd" />
  <path
     d="m 2249.66,101.268 c 2.204,2.822 1.715,6.89 -1.098,9.087 -2.808,2.194 -6.876,1.687 -9.08,-1.136 -2.205,-2.822 -1.713,-6.89 1.096,-9.083 2.813,-2.198 6.876,-1.69 9.081,1.132"
     id="path108"
     inkscape:connector-curvature="0"
     style="fill:#000000;fill-rule:evenodd" />
  <path
     style="opacity:0.9;fill:#6d4477;fill-rule:nonzero"
     inkscape:connector-curvature="0"
     id="path140"
     d="m 1425.453,174.577 c 337.41,36.675 714.259,61.09 1122.547,57.248 V 250 H -4.000001 l 2,-145 C 232.68,110.527 1184.498,148.386 1425.453,174.577 Z"
     sodipodi:nodetypes="sccccs" />
  <path
     style="fill:#744d7e;fill-rule:nonzero"
     inkscape:connector-curvature="0"
     id="path104"
     d="m 2206.814,206.889 c -247.9,29.978 -521.838,43.396 -821.814,40.255 V 262 h 1346 v -94 c -172.423,4.518 -347.152,17.48 -524.186,38.889 z" />
  <path
     style="fill:#34163b;fill-rule:nonzero"
     inkscape:connector-curvature="0"
     id="path118"
     d="m 2367.877,91.543 5.04,6.69 c -4.29,-0.07 -7.053,-0.353 -8.286,-0.85 -1.234,-0.496 -2.305,-2.511 -3.213,-6.046 -0.491,-3.07 -0.63,-5.147 -0.415,-6.232 -2.196,-5.497 -1.723,-6.974 1.419,-4.43 l 11.966,9.69 c -2.823,0.657 -4.994,1.049 -6.511,1.178 z" />
  <path
     style="fill:#1d1d1b;fill-rule:evenodd"
     inkscape:connector-curvature="0"
     id="path124"
     d="m 2292.58,260.105 c 0,0.651 -0.526,1.18 -1.175,1.18 a 1.177,1.177 0 0 1 -1.174,-1.18 c 0,-0.651 0.526,-1.179 1.174,-1.179 0.65,0 1.175,0.528 1.175,1.18 m 7.045,-2.359 c 0,0.651 -0.526,1.18 -1.175,1.18 a 1.177,1.177 0 0 1 -1.174,-1.18 c 0,-0.651 0.526,-1.179 1.174,-1.179 0.65,0 1.175,0.528 1.175,1.18" />
  <path
     style="fill:#6d4477;fill-rule:nonzero;stroke-width:0.8775447"
     inkscape:connector-curvature="0"
     id="path102-6"
     d="M 2691.4386,252.56497 1368.6875,241.25126 V 432.168 H 2687.196 Z"
     sodipodi:nodetypes="ccccc" />
  <path
     style="fill:#744d7e;fill-rule:evenodd"
     inkscape:connector-curvature="0"
     id="path110"
     d="m 2270.225,122.38 c 0.4,0.512 0.312,1.252 -0.2,1.651 -0.51,0.4 -1.25,0.307 -1.65,-0.206 a 1.176,1.176 0 0 1 0.199,-1.652 c 0.511,-0.4 1.25,-0.307 1.65,0.206 m -7.19,0.542 c 0.401,0.513 0.312,1.253 -0.2,1.652 -0.51,0.4 -1.25,0.307 -1.65,-0.206 a 1.176,1.176 0 0 1 0.199,-1.652 c 0.511,-0.4 1.25,-0.307 1.651,0.206 m -5.714,-5.688 c 0.402,0.513 0.313,1.252 -0.199,1.652 -0.51,0.399 -1.25,0.307 -1.65,-0.207 a 1.176,1.176 0 0 1 0.199,-1.651 c 0.511,-0.4 1.25,-0.308 1.65,0.206" />
  <path
     style="fill:#34163b;fill-rule:evenodd"
     inkscape:connector-curvature="0"
     id="path114"
     d="m 2371.861,265.056 v -149.6 c 0,-28.39 -15.63,-51.406 -43.779,-51.406 -18.766,0 -33.359,6.928 -43.778,20.785 v 162.637" />
  <path
     style="fill:#beadc3;fill-rule:evenodd"
     inkscape:connector-curvature="0"
     id="path116"
     d="m 2284.3,256.568 v -83.234 c 15.655,14.645 23.483,31.718 23.483,51.217 v 32.017" />
  <path
     style="fill:#744d7e;fill-rule:evenodd"
     inkscape:connector-curvature="0"
     id="path122"
     d="m 2294.348,208.179 c 0,0.65 -0.525,1.179 -1.174,1.179 a 1.177,1.177 0 0 1 -1.174,-1.18 c 0,-0.65 0.526,-1.178 1.174,-1.178 0.649,0 1.174,0.528 1.174,1.179 m 0.58,29.526 c 0,0.651 -0.526,1.18 -1.174,1.18 a 1.177,1.177 0 0 1 -1.174,-1.18 c 0,-0.651 0.525,-1.179 1.174,-1.179 0.648,0 1.174,0.528 1.174,1.18 m 2.348,-12.969 c 0,0.65 -0.525,1.179 -1.174,1.179 a 1.177,1.177 0 0 1 -1.174,-1.18 c 0,-0.65 0.526,-1.178 1.174,-1.178 0.649,0 1.174,0.527 1.174,1.179" />
  <path
     style="fill:none;fill-rule:evenodd;stroke:#000000;stroke-width:2"
     inkscape:connector-curvature="0"
     id="path126"
     d="m 2255,104 h 14.962 m -34.842,0 H 2219 m 17.441,5 -15.441,6.572 m 34,-6.572 15.441,6.572 z" />
  <path
     style="fill:#34163b;fill-rule:evenodd"
     inkscape:connector-curvature="0"
     id="path128"
     d="m 2287.11,130 -11.11,1.465 c 1.62,0 1.301,2.094 3.415,3.225 2.114,1.132 4.763,3.362 4.763,5.633 l 10.217,0.977 z" />
  <path
     style="fill:#000000;fill-rule:evenodd;stroke:#000000;stroke-width:4.19999981"
     inkscape:connector-curvature="0"
     id="path130"
     d="m 2299.425,104.325 c 0,-3.684 2.912,-6.671 6.504,-6.671 3.592,0 6.502,2.987 6.502,6.67 h -13.006 z" />
  <path
     style="fill:#000000;fill-rule:evenodd;stroke:#000000;stroke-width:4.19999981"
     inkscape:connector-curvature="0"
     id="path132"
     d="m 2312.431,103.991 c 0,3.684 -2.911,6.67 -6.503,6.67 -3.592,0 -6.503,-2.986 -6.503,-6.67 z" />
  <circle
     style="fill:#ffffff;fill-rule:nonzero"
     id="circle134"
     r="2"
     cy="103"
     cx="2304" />
</svg>
