<?xml version="1.0" encoding="UTF-8" standalone="no"?>
<svg
   xmlns:dc="http://purl.org/dc/elements/1.1/"
   xmlns:cc="http://creativecommons.org/ns#"
   xmlns:rdf="http://www.w3.org/1999/02/22-rdf-syntax-ns#"
   xmlns:svg="http://www.w3.org/2000/svg"
   xmlns="http://www.w3.org/2000/svg"
   xmlns:xlink="http://www.w3.org/1999/xlink"
   xmlns:sodipodi="http://sodipodi.sourceforge.net/DTD/sodipodi-0.dtd"
   xmlns:inkscape="http://www.inkscape.org/namespaces/inkscape"
   width="387.73828"
   height="474.93906"
   viewBox="0 0 387.73828 474.93906"
   version="1.1"
   id="svg72"
   sodipodi:docname="group-14.svg"
   inkscape:version="0.92.4 (f8dce91, 2019-08-02)">
  <metadata
     id="metadata76">
    <rdf:RDF>
      <cc:Work
         rdf:about="">
        <dc:format>image/svg+xml</dc:format>
        <dc:type
           rdf:resource="http://purl.org/dc/dcmitype/StillImage" />
        <dc:title></dc:title>
      </cc:Work>
    </rdf:RDF>
  </metadata>
  <sodipodi:namedview
     pagecolor="#ffffff"
     bordercolor="#666666"
     borderopacity="1"
     objecttolerance="10"
     gridtolerance="10"
     guidetolerance="10"
     inkscape:pageopacity="0"
     inkscape:pageshadow="2"
     inkscape:window-width="1299"
     inkscape:window-height="713"
     id="namedview74"
     showgrid="false"
     fit-margin-top="0"
     fit-margin-left="0"
     fit-margin-right="0"
     fit-margin-bottom="0"
     inkscape:zoom="0.87142141"
     inkscape:cx="527.20212"
     inkscape:cy="208.11067"
     inkscape:window-x="67"
     inkscape:window-y="27"
     inkscape:window-maximized="1"
     inkscape:current-layer="g70" />
  <defs
     id="defs4">
    <path
       id="a"
       d="M 68.023,40.042 C 68.023,18.075 50.295,0.266 28.426,0.266 H 0 V 142.19 c 0,73.414 22.021,89.987 51.233,89.987 h 16.79 L 46.237,192.5 h 21.786 z"
       inkscape:connector-curvature="0" />
    <path
       id="c"
       d="M 22.35,0 H 0 V 27.237 C 0,41.454 11.526,52.978 25.741,52.978 H 75.326 C 75.326,23.718 51.608,0 22.35,0"
       inkscape:connector-curvature="0" />
  </defs>
  <g
     id="g70"
     style="fill:none;fill-rule:evenodd"
     transform="translate(-71.21875,119.69491)">
    <path
       style="fill:#7e5689"
       d="m 276.75195,355.15234 c -88.96722,0 -166.2811,49.83489 -205.5332,123.0918 137.534,-0.69704 266.77798,-12.49334 387.73828,-35.38476 -42.69257,-53.45551 -108.44531,-87.70704 -182.20508,-87.70704 z"
       transform="translate(0,-123)"
       id="path6"
       inkscape:connector-curvature="0" />
    <path
       d="m 179.887,80.115 -27.21,-15.71 C 131.867,52.391 124.731,25.795 136.738,5 c 11.762,10.442 21.634,15.663 29.616,15.663 7.982,0 12.812,3.267 14.49,9.801 l -0.958,49.651 z"
       id="path8"
       inkscape:connector-curvature="0"
       style="fill:#e29fb0" />
    <g
       transform="translate(151.952,20.4)"
       id="g17">
      <mask
         id="b"
         fill="#fff">
        <use
           xlink:href="#a"
           id="use10"
           x="0"
           y="0"
           width="100%"
           height="100%" />
      </mask>
      <use
         xlink:href="#a"
         id="use13"
         style="fill:#e29fb0"
         x="0"
         y="0"
         width="100%"
         height="100%" />
      <path
         d="M -1,262.901 V 91 c 13.333,12.422 20,26.903 20,43.443 v 128.458"
         mask="url(#b)"
         id="path15"
         inkscape:connector-curvature="0"
         style="fill:#fefefe" />
    </g>
    <path
       d="m 143.266,5.765 a 5.5000001,5.5000001 0 1 1 -11,0.002 5.5000001,5.5000001 0 0 1 11,-0.002 M 143,31 a 1,1 0 1 1 -2,0 1,1 0 0 1 2,0 m -4,-11 a 1,1 0 1 1 -2,0 1,1 0 0 1 2,0 m 5,20 a 1,1 0 1 1 -2,0 1,1 0 0 1 2,0 m 19,97 a 1,1 0 1 1 -2,0 1,1 0 0 1 2,0 m -2,29 a 1,1 0 1 1 -2,0 1,1 0 0 1 2,0 m 2,-11 a 1,1 0 1 1 -2,0 1,1 0 0 1 2,0 m 2,45 a 1,1 0 1 1 -2,0 1,1 0 0 1 2,0 m -6,-15 a 1,1 0 1 1 -2,0 1,1 0 0 1 2,0 m 6,-2 a 1,1 0 1 1 -2,0 1,1 0 0 1 2,0 m 0,32 a 1,1 0 1 1 -2,0 1,1 0 0 1 2,0"
       id="path19"
       inkscape:connector-curvature="0"
       style="fill:#1d1d1b" />
    <g
       id="g23"
       style="fill:#6d4477">
      <path
         d="m 159,297 a 3,3 0 1 1 -6,0 3,3 0 0 1 6,0 m -38,23 a 3,3 0 1 1 -6,0 3,3 0 0 1 6,0 m 26,6.5 a 1.5,1.5 0 1 1 -3,0 1.5,1.5 0 0 1 3,0 m -14,-15 a 1.5,1.5 0 1 1 -3,0 1.5,1.5 0 0 1 3,0 m 18,-1 a 1.5,1.5 0 1 1 -3,0 1.5,1.5 0 0 1 3,0 m 15,28 a 1.5,1.5 0 1 1 -3,0 1.5,1.5 0 0 1 3,0 m -3,-14 a 1.5,1.5 0 1 1 -3,0 1.5,1.5 0 0 1 3,0 m 26,4 a 1.5,1.5 0 1 1 -3,0 1.5,1.5 0 0 1 3,0 m -48,-37 a 1.5,1.5 0 1 1 -3,0 1.5,1.5 0 0 1 3,0 m -5,50 a 1.5,1.5 0 1 1 -3,0 1.5,1.5 0 0 1 3,0 m -12,-12 a 1.5,1.5 0 1 1 -3,0 1.5,1.5 0 0 1 3,0 m -17,11 a 1.5,1.5 0 1 1 -3,0 1.5,1.5 0 0 1 3,0"
         id="path21"
         inkscape:connector-curvature="0" />
    </g>
    <path
       d="m 151,38 a 1,1 0 1 1 -2,0 1,1 0 0 1 2,0 m -13,-4 a 1,1 0 1 1 -2,0 1,1 0 0 1 2,0 m 11,-9 a 1,1 0 1 1 -2,0 1,1 0 0 1 2,0"
       id="path25"
       inkscape:connector-curvature="0"
       style="fill:#1d1d1b" />
    <path
       d="m 151,4 h 16 M 125.239,4 H 108 M 128.513,11 112,18 M 148.487,11 165,18"
       id="path27"
       inkscape:connector-curvature="0"
       style="stroke:#1d1d1b;stroke-width:2" />
    <path
       d="m 298,162 h 10.178 c 30.818,0 57.83,19.352 57.83,51.76 l -58.875,1.545 z M 155.168,53 143,55.263 c 1.774,0 1.425,3.234 3.74,4.982 2.315,1.747 5.217,5.192 5.217,8.7 l 11.19,1.508 z m 112.171,174.49 0.633,-65.521 c -26.446,0 -47.883,-20.523 -47.883,-46.969 L 204,239.146 267.339,227.491 Z m 114.069,38.755 0.204,-20.816 c -8.52,0 -15.643,-6.908 -15.643,-15.429 0,-5.68 -1.657,7.653 -4.969,40 z"
       id="path29"
       inkscape:connector-curvature="0"
       style="fill:#e29fb0" />
    <path
       d="m 174,43.73 a 5.357,5.357 0 0 1 9.459,5.03"
       id="path31"
       inkscape:connector-curvature="0"
       style="stroke:#000000;stroke-width:4.19999981" />
    <path
       d="M 196.552,253.04 H 309 V 162 H 196.552 Z"
       id="path35"
       inkscape:connector-curvature="0"
       style="fill:#e29fb0" />
    <path
       d="m 243,253.04 h 123.008 v -40 H 243 Z"
       id="path37"
       inkscape:connector-curvature="0"
       style="fill:#e29fb0" />
    <path
       d="m 204,253.04 h 139.339 c -18.275,-13.333 -40.971,-20 -68.088,-20 -27.117,0 -50.868,-3.837 -71.251,-11.513 z"
       id="path39"
       inkscape:connector-curvature="0"
       style="fill:#fefefe" />
    <path
       d="m 236,246 a 1,1 0 1 1 -2,0 1,1 0 0 1 2,0 m 28,-6 a 1,1 0 1 1 -2,0 1,1 0 0 1 2,0 m -20,0 a 1,1 0 1 1 -2,0 1,1 0 0 1 2,0 m 30,9 a 1,1 0 1 1 -2,0 1,1 0 0 1 2,0 m 20,-2 a 1,1 0 1 1 -2,0 1,1 0 0 1 2,0 m -40,-1 a 1,1 0 1 1 -2,0 1,1 0 0 1 2,0"
       id="path41"
       inkscape:connector-curvature="0"
       style="fill:#1d1d1b" />
    <path
       d="m 386.275,245.522 h -21.266 v 25.917 c 0,13.528 10.966,24.494 24.493,24.494 h 47.182 c 0,-27.842 -22.57,-50.411 -50.41,-50.411"
       id="path43"
       inkscape:connector-curvature="0"
       style="fill:#e29fb0" />
    <path
       d="m 344.038,245.522 h 21.265 v 25.917 c 0,13.528 -10.966,24.494 -24.492,24.494 h -47.182 c 0,-27.842 22.568,-50.411 50.41,-50.411"
       id="path45"
       inkscape:connector-curvature="0"
       style="fill:#e29fb0" />
    <g
       id="g51"
       style="fill-rule:nonzero;stroke:#000000;stroke-width:2">
      <path
         d="m 309,296.1 c 0,-14.11 10.204,-28.068 16.627,-32.113 M 327,296.113 c 0,-14.11 10.204,-28.068 16.627,-32.113"
         id="path49"
         inkscape:connector-curvature="0" />
    </g>
    <g
       id="g55"
       style="fill-rule:nonzero;stroke:#000000;stroke-width:2">
      <path
         d="m 419,296.1 c 0,-14.11 -10.204,-28.068 -16.627,-32.113 M 401,296.113 C 401,282.003 390.796,268.045 384.373,264"
         id="path53"
         inkscape:connector-curvature="0" />
    </g>
    <path
       d="m 171,197 h 35 v 56 h -35 z"
       id="path57"
       inkscape:connector-curvature="0"
       style="fill:#e29fb0;fill-rule:nonzero" />
    <g
       transform="translate(171,245)"
       id="g68">
      <mask
         id="d"
         fill="#fff">
        <use
           xlink:href="#c"
           id="use59"
           x="0"
           y="0"
           width="100%"
           height="100%" />
      </mask>
      <use
         xlink:href="#c"
         id="use62"
         style="fill:#e29fb0"
         x="0"
         y="0"
         width="100%"
         height="100%" />
      <g
         mask="url(#d)"
         id="g66"
         style="fill-rule:nonzero;stroke:#000000;stroke-width:2">
        <path
           d="M 75.613,39.97 H 40.133 C 32.39,39.97 27,37.849 27,29 M 75.613,23.97 H 40.133 C 32.39,23.97 27,21.849 27,13"
           id="path64"
           inkscape:connector-curvature="0" />
      </g>
    </g>
  </g>
  <g
     transform="translate(3.037577,-0.83680753)"
     style="fill:none;fill-rule:nonzero"
     id="g58">
    <g
       transform="rotate(-57,55.5,55.5)"
       id="g6">
      <circle
         style="fill:#55a3b3"
         cx="55.101002"
         cy="55.504002"
         r="55"
         id="circle2" />
      <path
         style="stroke:#ffffff;stroke-width:6"
         inkscape:connector-curvature="0"
         d="m 69.794,36.097 -16.417,20.35 4.196,16.179"
         id="path4" />
    </g>
    <g
       style="fill:#ffffff"
       transform="translate(9,10)"
       id="g56">
      <circle
         cx="46"
         cy="2"
         r="2"
         id="circle8" />
      <circle
         cx="46"
         cy="90"
         r="2"
         id="circle10" />
      <circle
         cx="2"
         cy="46"
         r="2"
         transform="rotate(-90,2,46)"
         id="circle12" />
      <circle
         cx="90"
         cy="46"
         r="2"
         transform="rotate(-90,90,46)"
         id="circle14" />
      <circle
         cx="46"
         cy="2"
         r="2"
         id="circle16" />
      <circle
         cx="46"
         cy="90"
         r="2"
         id="circle18" />
      <circle
         cx="2"
         cy="46"
         r="2"
         transform="rotate(-90,2,46)"
         id="circle20" />
      <circle
         cx="90"
         cy="46"
         r="2"
         transform="rotate(-90,90,46)"
         id="circle22" />
      <circle
         cx="7.895"
         cy="24"
         r="2"
         transform="rotate(-60,7.895,24)"
         id="circle24" />
      <circle
         cx="84.105003"
         cy="68"
         r="2"
         transform="rotate(-60,84.105,68)"
         id="circle26" />
      <circle
         cx="7.895"
         cy="24"
         r="2"
         transform="rotate(-60,7.895,24)"
         id="circle28" />
      <circle
         cx="84.105003"
         cy="68"
         r="2"
         transform="rotate(-60,84.105,68)"
         id="circle30" />
      <circle
         cx="24"
         cy="7.895"
         r="2"
         transform="rotate(-30,24,7.895)"
         id="circle32" />
      <circle
         cx="68"
         cy="84.105003"
         r="2"
         transform="rotate(-30,68,84.105)"
         id="circle34" />
      <circle
         cx="24"
         cy="7.895"
         r="2"
         transform="rotate(-30,24,7.895)"
         id="circle36" />
      <circle
         cx="68"
         cy="84.105003"
         r="2"
         transform="rotate(-30,68,84.105)"
         id="circle38" />
      <circle
         cx="7.895"
         cy="68"
         r="2"
         transform="rotate(-120,7.895,68)"
         id="circle40" />
      <circle
         cx="84.105003"
         cy="24"
         r="2"
         transform="rotate(-120,84.105,24)"
         id="circle42" />
      <circle
         cx="7.895"
         cy="68"
         r="2"
         transform="rotate(-120,7.895,68)"
         id="circle44" />
      <circle
         cx="84.105003"
         cy="24"
         r="2"
         transform="rotate(-120,84.105,24)"
         id="circle46" />
      <circle
         cx="24"
         cy="84.105003"
         r="2"
         transform="rotate(-150,24,84.105)"
         id="circle48" />
      <circle
         cx="68"
         cy="7.895"
         r="2"
         transform="rotate(-150,68,7.895)"
         id="circle50" />
      <circle
         cx="24"
         cy="84.105003"
         r="2"
         transform="rotate(-150,24,84.105)"
         id="circle52" />
      <circle
         cx="68"
         cy="7.895"
         r="2"
         transform="rotate(-150,68,7.895)"
         id="circle54" />
    </g>
  </g>
</svg>
