<?xml version="1.0" encoding="UTF-8" standalone="no"?>
<!-- Created with Inkscape (http://www.inkscape.org/) -->

<svg
   xmlns:dc="http://purl.org/dc/elements/1.1/"
   xmlns:cc="http://creativecommons.org/ns#"
   xmlns:rdf="http://www.w3.org/1999/02/22-rdf-syntax-ns#"
   xmlns:svg="http://www.w3.org/2000/svg"
   xmlns="http://www.w3.org/2000/svg"
   xmlns:xlink="http://www.w3.org/1999/xlink"
   xmlns:sodipodi="http://sodipodi.sourceforge.net/DTD/sodipodi-0.dtd"
   xmlns:inkscape="http://www.inkscape.org/namespaces/inkscape"
   width="487.70078"
   height="347"
   viewBox="0 0 129.03831 91.810822"
   version="1.1"
   id="svg8"
   inkscape:version="0.92.4 5da689c313, 2019-01-14"
   sodipodi:docname="rysunek.svg">
  <defs
     id="defs2">
    <path
       d="m 191.5,344.55 c 36.692,0 70.076,-1.908 94.98,-5.027 27.387,-3.43 118.157,-138.543 95.586,-126.337 C 359.273,225.51 249.446,0.969 210.734,0.969 172.824,0.969 33.678,43.755 6.107,31.635 -22.354,19.123 70.227,336.4 99.135,339.842 c 24.603,2.93 56.942,4.708 92.365,4.708 z"
       id="a"
       inkscape:connector-curvature="0" />
  </defs>
  <sodipodi:namedview
     id="base"
     pagecolor="#ffffff"
     bordercolor="#666666"
     borderopacity="1.0"
     inkscape:pageopacity="0.0"
     inkscape:pageshadow="2"
     inkscape:zoom="0.70000001"
     inkscape:cx="457.19881"
     inkscape:cy="363.95587"
     inkscape:document-units="mm"
     inkscape:current-layer="layer1"
     showgrid="false"
     inkscape:window-width="1920"
     inkscape:window-height="1040"
     inkscape:window-x="0"
     inkscape:window-y="0"
     inkscape:window-maximized="1"
     units="px" />
  <metadata
     id="metadata5">
    <rdf:RDF>
      <cc:Work
         rdf:about="">
        <dc:format>image/svg+xml</dc:format>
        <dc:type
           rdf:resource="http://purl.org/dc/dcmitype/StillImage" />
        <dc:title></dc:title>
      </cc:Work>
    </rdf:RDF>
  </metadata>
  <g
     inkscape:label="Layer 1"
     inkscape:groupmode="layer"
     id="layer1"
     transform="translate(0,-205.19079)">
    <g
       style="fill:none;fill-rule:nonzero"
       id="g19"
       transform="matrix(0.09113486,0,0,0.09113486,-53.914354,251.15518)">
      <path
         style="opacity:0.24600004;fill:#7db7c4"
         inkscape:connector-curvature="0"
         d="m 1136.793,297.092 c 265.213,44.01 558.282,63.71 879.207,59.097 V 384 H 576 V 240 c 184.465,6.632 371.396,25.663 560.793,57.092 z"
         id="path13" />
      <path
         style="fill:#7db7c4"
         inkscape:connector-curvature="0"
         d="M 1566.207,316.436 C 1300.994,365.336 1007.925,387.224 687,382.099 V 413 H 2127 V 253 c -184.465,7.37 -371.396,28.515 -560.793,63.436 z"
         id="path15" />
      <path
         style="fill:#3d7884"
         inkscape:connector-curvature="0"
         d="m 687,406 h 1440 v 70 H 687 Z"
         id="path17" />
    </g>
    <path
       style="fill:#5294a1;fill-rule:nonzero;stroke-width:0.10402808"
       inkscape:connector-curvature="0"
       d="M 0.03748348,284.60167 H 131.27168 v 14.36819 H 0.03748348 Z"
       id="path21" />
    <g
       style="fill:none;fill-rule:nonzero"
       id="g29"
       transform="matrix(0.09113486,0,0,0.09113486,-53.914354,251.15518)">
      <path
         style="fill:#3d7884"
         inkscape:connector-curvature="0"
         d="m 791.823,376.18 c 219.353,36.37 461.745,52.649 727.177,48.838 V 448 H 328 V 329 c 152.568,5.481 307.175,21.208 463.823,47.18 z"
         id="path23" />
      <path
         style="fill:#3d7884"
         inkscape:connector-curvature="0"
         d="M 1061,442 H 445 v 58 h 616 z"
         id="path25" />
      <path
         style="fill:#5294a1"
         inkscape:connector-curvature="0"
         d="M 920.114,450.18 C 642.562,486.55 335.857,502.83 0,499.018 V 522 H 1507 V 403 c -193.047,5.481 -388.676,21.208 -586.886,47.18 z"
         id="path27" />
    </g>
    <g
       style="fill:none;fill-rule:evenodd"
       transform="matrix(0.09113486,0,0,0.09113486,58.363795,260.3598)"
       id="g64">
      <ellipse
         style="fill:#65a1ae;fill-rule:nonzero"
         cx="463.5"
         cy="345"
         rx="295.5"
         ry="42"
         id="ellipse31" />
      <ellipse
         style="fill:#65a1ae;fill-rule:nonzero"
         cx="93.5"
         cy="351.04599"
         rx="35.5"
         ry="5.046"
         id="ellipse33" />
      <ellipse
         style="fill:#65a1ae;fill-rule:nonzero"
         cx="14"
         cy="364.98999"
         rx="14"
         ry="1.99"
         id="ellipse35" />
      <ellipse
         style="fill:#5294a1;fill-rule:nonzero"
         cx="463"
         cy="345"
         rx="202"
         ry="29"
         id="ellipse37" />
      <ellipse
         style="fill:#65a1ae;fill-rule:nonzero"
         cx="462.5"
         cy="345.5"
         rx="135.5"
         ry="19.5"
         id="ellipse39" />
      <g
         transform="translate(274)"
         id="g62">
        <mask
           id="b"
           fill="#fff">
          <use
             height="100%"
             width="100%"
             y="0"
             x="0"
             xlink:href="#a"
             id="use41" />
        </mask>
        <g
           mask="url(#b)"
           id="g54">
          <path
             style="fill:#e29fb0"
             inkscape:connector-curvature="0"
             d="m 143.426,190.963 c 27.82,-14.248 36.464,-10.45 25.934,11.396 -17.843,37.016 -6.7,74.564 24.057,93.204 30.757,18.64 72.392,32.878 94.693,86.605 22.3,53.727 30.547,73.204 13.886,98.66 -11.108,16.97 -45.145,16.976 -102.111,0.018 l 2.88,-39.954 -20.13,22.184 c 15.831,-42.775 7.854,-73.339 -23.933,-91.69 -47.68,-27.529 -63.236,-138.334 -31.448,-194.55 14.634,-25.882 16.649,-12.589 16.172,14.127 z"
             id="path44" />
          <path
             style="fill:#e29fb0"
             inkscape:connector-curvature="0"
             d="m 112.48,172.41 32.902,18.994 23.15,-40.097 c 12.083,-20.929 4.913,-47.69 -16.016,-59.773 L 79.521,49.39 c -24.87,43.075 -10.112,98.152 32.96,123.02"
             id="path46" />
          <path
             style="fill:#e29fb0"
             inkscape:connector-curvature="0"
             d="m 177.825,210.136 -32.899,-18.995 23.15,-40.097 c 12.084,-20.929 38.844,-28.1 59.772,-16.017 l 72.995,42.144 c -24.869,43.074 -79.944,57.833 -123.018,32.965"
             id="path48" />
          <path
             style="fill:#6d367a"
             inkscape:connector-curvature="0"
             d="m 315.88,23.084 4.281,-7.414 -4.28,7.414 -4.281,7.414 z"
             id="path50" />
          <path
             style="stroke:#000000;stroke-width:2"
             inkscape:connector-curvature="0"
             d="m 283.56,167.042 c -12.605,21.83 -40.859,34.31 -54.41,34.831 m 34.49,-46.331 c -12.603,21.83 -40.858,34.31 -54.408,34.831 m 32.758,-47.331 c -12.604,21.83 -40.858,34.31 -54.409,34.831 M 116.672,70.69 c -12.603,21.83 -9.284,52.54 -2.96,64.535 M 136.591,82.19 c -12.604,21.83 -9.285,52.54 -2.96,64.535 M 99.352,60.69 c -12.604,21.83 -9.285,52.54 -2.96,64.535"
             id="path52" />
        </g>
        <path
           style="fill:#ffffff;fill-rule:nonzero"
           inkscape:connector-curvature="0"
           d="m 147.973,347.622 c -10.407,-16.58 -12.234,-34.818 15.25,-33.944 18.322,0.583 40.012,11.898 65.07,33.944 -11.896,8.1 -21.439,12.15 -28.628,12.15 -10.785,0 -41.286,4.43 -51.692,-12.15 z"
           mask="url(#b)"
           id="path56" />
        <g
           style="fill:#1d1d1b"
           id="g60">
          <path
             inkscape:connector-curvature="0"
             d="m 157.94,334.91 a 1.0004855,1.0004855 0 1 1 -1.286,1.533 1.0001025,1.0001025 0 0 1 1.286,-1.532 m 9.564,-4.073 a 1.0001025,1.0001025 0 1 1 -1.286,1.532 1.0001025,1.0001025 0 0 1 1.286,-1.532 m -14.828,-7.221 a 1.0004855,1.0004855 0 1 1 -1.286,1.533 1.0004855,1.0004855 0 0 1 1.286,-1.533 m 35.291,13.948 a 1,1 0 1 1 -1.285,1.532 1,1 0 0 1 1.285,-1.532 m -5.979,-11.544 a 1.0001642,1.0001642 0 1 1 -1.285,1.533 1.0001642,1.0001642 0 0 1 1.285,-1.533 m -32.966,-19.829 a 1,1 0 1 1 -1.285,1.532 1,1 0 0 1 1.285,-1.532"
             id="path58" />
        </g>
      </g>
    </g>
    <circle
       style="fill:#7db7c4;fill-rule:nonzero;stroke-width:0.09113486"
       cx="103.20214"
       cy="260.81549"
       r="0.27340457"
       id="circle66" />
    <circle
       style="fill:#7db7c4;fill-rule:nonzero;stroke-width:0.09113486"
       cx="98.235283"
       cy="256.66882"
       r="0.22783715"
       id="circle68" />
    <circle
       style="fill:#7db7c4;fill-rule:nonzero;stroke-width:0.09113486"
       cx="102.60976"
       cy="256.75995"
       r="0.41010687"
       id="circle70" />
    <circle
       style="fill:#5294a1;fill-rule:nonzero;stroke-width:0.09113486"
       cx="86.889"
       cy="276.94635"
       r="0.36453944"
       id="circle72" />
    <circle
       style="fill:#7db7c4;fill-rule:nonzero;stroke-width:0.09113486"
       cx="100.05799"
       cy="265.05325"
       r="0.22783715"
       id="circle74" />
    <circle
       style="fill:#7db7c4;fill-rule:nonzero;stroke-width:0.09113486"
       cx="98.326424"
       cy="251.383"
       r="0.22783715"
       id="circle76" />
    <circle
       style="fill:#5294a1;fill-rule:nonzero;stroke-width:0.09113486"
       cx="89.942024"
       cy="281.45752"
       r="0.22783715"
       id="circle78" />
    <circle
       style="fill:#5294a1;fill-rule:nonzero;stroke-width:0.09113486"
       cx="89.942024"
       cy="276.62738"
       r="0.22783715"
       id="circle80" />
  </g>
</svg>
