<svg xmlns="http://www.w3.org/2000/svg" width="65" height="63" viewBox="0 0 65 63">
    <g fill="#50BBBD" fill-rule="nonzero">
        <path d="M63.887 8.43c0-4.62-3.81-8.43-8.43-8.43-4.62 0-8.429 3.81-8.429 8.43 0 4.62 3.81 8.43 8.43 8.43 4.7-.082 8.43-3.81 8.43-8.43zm-11.915 0c0-1.946 1.622-3.567 3.567-3.567s3.566 1.621 3.566 3.567c0 1.945-1.62 3.566-3.566 3.566-1.945 0-3.567-1.621-3.567-3.566z"/>
        <path d="M32.55 0c-4.709 0-8.592 3.896-8.592 8.621 0 4.725 3.883 8.621 8.593 8.621 1.57 0 3.057-.414 4.379-1.243l11.567 11.605a8.721 8.721 0 0 0-.908 3.896c0 3.896 2.561 7.129 6.114 8.207v6.465c-3.553 1.078-6.114 4.31-6.114 8.207 0 4.725 3.883 8.621 8.593 8.621s8.593-3.896 8.593-8.621c0-3.896-2.562-7.129-6.115-8.207v-6.465c3.553-1.078 6.115-4.31 6.115-8.207 0-4.725-3.884-8.621-8.593-8.621-1.57 0-2.975.414-4.214 1.16L40.235 12.351c.578-1.16.826-2.404.826-3.73.083-4.725-3.8-8.621-8.51-8.621zm-3.635 8.621c0-1.99 1.653-3.647 3.636-3.647s3.635 1.658 3.635 3.647c0 1.99-1.652 3.647-3.635 3.647-1.983 0-3.636-1.657-3.636-3.647zm30.82 45.758c0 1.99-1.653 3.647-3.636 3.647s-3.636-1.658-3.636-3.647c0-1.99 1.653-3.647 3.636-3.647s3.636 1.657 3.636 3.647zm-3.553-26.526c1.983 0 3.635 1.658 3.635 3.647 0 1.99-1.652 3.647-3.635 3.647-1.983 0-3.636-1.658-3.636-3.647 0-1.99 1.57-3.647 3.636-3.647z"/>
        <path d="M.083 31.5c0 4.725 3.883 8.621 8.593 8.621.826 0 1.57-.083 2.23-.332l12.89 12.932c-.083.58-.165 1.078-.165 1.658 0 4.725 3.883 8.621 8.593 8.621s8.593-3.896 8.593-8.621c0-3.896-2.561-7.129-6.114-8.207v-6.465c3.553-1.078 6.114-4.31 6.114-8.207 0-4.725-3.883-8.621-8.593-8.621S23.63 26.775 23.63 31.5c0 3.896 2.561 7.129 6.114 8.207v6.465a9.062 9.062 0 0 0-3.47 1.99L15.203 37.054c1.24-1.492 1.983-3.399 1.983-5.554 0-3.896-2.561-7.129-6.114-8.207v-6.465c3.553-1.078 6.114-4.31 6.114-8.207C17.186 3.896 13.303 0 8.593 0S0 3.896 0 8.621c0 3.896 2.561 7.129 6.114 8.207v6.465A8.579 8.579 0 0 0 .083 31.5zm28.505 0c0-1.99 1.653-3.647 3.636-3.647s3.635 1.658 3.635 3.647c0 1.99-1.652 3.647-3.635 3.647-1.983 0-3.636-1.658-3.636-3.647zm3.636 19.314c1.983 0 3.635 1.658 3.635 3.648 0 1.99-1.652 3.564-3.635 3.564-1.983 0-3.636-1.658-3.636-3.647 0-1.99 1.653-3.565 3.636-3.565zM12.229 31.5c0 1.99-1.653 3.647-3.636 3.647S4.958 33.49 4.958 31.5c0-1.99 1.652-3.647 3.635-3.647 1.983 0 3.636 1.658 3.636 3.647zM5.04 8.621c0-1.99 1.653-3.647 3.636-3.647S12.31 6.632 12.31 8.62c0 1.99-1.652 3.647-3.635 3.647-1.983 0-3.636-1.657-3.636-3.647z"/>
        <path d="M8.43 63c4.62 0 8.43-3.81 8.43-8.43 0-4.62-3.81-8.43-8.43-8.43-4.62 0-8.43 3.81-8.43 8.43C.081 59.19 3.81 63 8.43 63zm0-11.915c1.945 0 3.566 1.621 3.566 3.566 0 1.946-1.621 3.567-3.566 3.567-1.946 0-3.567-1.621-3.567-3.567 0-1.945 1.621-3.566 3.567-3.566z"/>
    </g>
</svg>
